<?xml version="1.0" encoding="UTF-8" standalone="no"?>
<!DOCTYPE svg PUBLIC "-//W3C//DTD SVG 1.1//EN" "http://www.w3.org/Graphics/SVG/1.1/DTD/svg11.dtd">
<!-- Generated by graphviz version 2.40.1 (20161225.0304)
 -->
<!-- Title: G Pages: 1 -->
<svg width="641pt" height="548pt" viewBox="0.00 0.00 640.50 548.21" xmlns="http://www.w3.org/2000/svg" xmlns:xlink="http://www.w3.org/1999/xlink">
<g id="graph0" class="graph" transform="scale(1 1) rotate(0) translate(4 544.2146)">
<title>G</title>
<polygon fill="#ffffff" stroke="transparent" points="-4,4 -4,-544.2146 636.503,-544.2146 636.503,4 -4,4"/>
<!-- start -->
<g id="node1" class="node">
<title>start</title>
<polygon fill="none" stroke="#000000" points="173.4546,-540.2146 134.2173,-522.2146 173.4546,-504.2146 212.6919,-522.2146 173.4546,-540.2146"/>
<polyline fill="none" stroke="#000000" points="145.1243,-527.2182 145.1243,-517.211 "/>
<polyline fill="none" stroke="#000000" points="162.5475,-509.2182 184.3617,-509.2182 "/>
<polyline fill="none" stroke="#000000" points="201.7848,-517.211 201.7848,-527.2182 "/>
<polyline fill="none" stroke="#000000" points="184.3617,-535.211 162.5475,-535.211 "/>
<text text-anchor="middle" x="173.4546" y="-518.0146" font-family="Times,serif" font-size="14.00" fill="#000000">start</text>
</g>
<!-- id_cuenca -->
<g id="node2" class="node">
<title>id_cuenca</title>
<polygon fill="none" stroke="#000000" points="251.4546,-468.2146 180.5215,-450.2146 251.4546,-432.2146 322.3877,-450.2146 251.4546,-468.2146"/>
<text text-anchor="middle" x="251.4546" y="-446.0146" font-family="Times,serif" font-size="14.00" fill="#000000">id_cuenca</text>
</g>
<!-- start&#45;&gt;id_cuenca -->
<g id="edge1" class="edge">
<title>start-&gt;id_cuenca</title>
<path fill="none" stroke="#000000" d="M186.6862,-510.0008C198.0949,-499.4697 214.8287,-484.0231 228.4291,-471.4689"/>
<polygon fill="#000000" stroke="#000000" points="231.0367,-473.8251 236.0108,-464.4704 226.2887,-468.6814 231.0367,-473.8251"/>
</g>
<!-- Run_MELCA -->
<g id="node3" class="node">
<title>Run_MELCA</title>
<ellipse fill="none" stroke="#000000" cx="96.4546" cy="-450.2146" rx="65.5141" ry="18"/>
<text text-anchor="middle" x="96.4546" y="-446.0146" font-family="Times,serif" font-size="14.00" fill="#000000">Run_MELCA</text>
</g>
<!-- start&#45;&gt;Run_MELCA -->
<g id="edge2" class="edge">
<title>start-&gt;Run_MELCA</title>
<path fill="none" stroke="#000000" d="M160.3926,-510.0008C150.0882,-500.3655 135.3833,-486.6154 122.6731,-474.7306"/>
<polygon fill="#000000" stroke="#000000" points="124.7689,-471.8986 115.0742,-467.6251 119.988,-477.0116 124.7689,-471.8986"/>
</g>
<!-- tabla_caudales -->
<g id="node4" class="node">
<title>tabla_caudales</title>
<ellipse fill="none" stroke="#000000" cx="96.4546" cy="-378.2146" rx="67.7548" ry="18"/>
<text text-anchor="middle" x="96.4546" y="-374.0146" font-family="Times,serif" font-size="14.00" fill="#000000">tabla_caudales</text>
</g>
<!-- id_cuenca&#45;&gt;tabla_caudales -->
<g id="edge7" class="edge">
<title>id_cuenca-&gt;tabla_caudales</title>
<path fill="none" stroke="#000000" d="M226.2062,-438.4863C202.7766,-427.6029 167.421,-411.1797 139.5305,-398.2241"/>
<polygon fill="#000000" stroke="#000000" points="140.93,-395.015 130.3862,-393.9764 137.9809,-401.3635 140.93,-395.015"/>
</g>
<!-- matcon -->
<g id="node5" class="node">
<title>matcon</title>
<ellipse fill="none" stroke="#000000" cx="274.4546" cy="-378.2146" rx="39.4254" ry="18"/>
<text text-anchor="middle" x="274.4546" y="-374.0146" font-family="Times,serif" font-size="14.00" fill="#000000">matcon</text>
</g>
<!-- id_cuenca&#45;&gt;matcon -->
<g id="edge4" class="edge">
<title>id_cuenca-&gt;matcon</title>
<path fill="none" stroke="#000000" d="M256.7891,-433.5154C259.4203,-425.2784 262.663,-415.1274 265.6489,-405.7803"/>
<polygon fill="#000000" stroke="#000000" points="269.038,-406.6726 268.747,-396.0817 262.37,-404.5424 269.038,-406.6726"/>
</g>
<!-- Run_MELCA&#45;&gt;tabla_caudales -->
<g id="edge3" class="edge">
<title>Run_MELCA-&gt;tabla_caudales</title>
<path fill="none" stroke="#000000" d="M96.4546,-432.046C96.4546,-424.3456 96.4546,-415.1889 96.4546,-406.6312"/>
<polygon fill="#000000" stroke="#000000" points="99.9547,-406.6278 96.4546,-396.6279 92.9547,-406.6279 99.9547,-406.6278"/>
</g>
<!-- caudal_agregado -->
<g id="node12" class="node">
<title>caudal_agregado</title>
<ellipse fill="none" stroke="#000000" cx="76.4546" cy="-306.2146" rx="76.4092" ry="18"/>
<text text-anchor="middle" x="76.4546" y="-302.0146" font-family="Times,serif" font-size="14.00" fill="#000000">caudal_agregado</text>
</g>
<!-- tabla_caudales&#45;&gt;caudal_agregado -->
<g id="edge12" class="edge">
<title>tabla_caudales-&gt;caudal_agregado</title>
<path fill="none" stroke="#000000" d="M91.4077,-360.046C89.2452,-352.2609 86.6693,-342.9875 84.2698,-334.3493"/>
<polygon fill="#000000" stroke="#000000" points="87.6182,-333.3263 81.5694,-324.6279 80.8736,-335.1998 87.6182,-333.3263"/>
</g>
<!-- ids_cuencas_tributarias -->
<g id="node6" class="node">
<title>ids_cuencas_tributarias</title>
<ellipse fill="none" stroke="#000000" cx="297.4546" cy="-306.2146" rx="101.8419" ry="18"/>
<text text-anchor="middle" x="297.4546" y="-302.0146" font-family="Times,serif" font-size="14.00" fill="#000000">ids_cuencas_tributarias</text>
</g>
<!-- matcon&#45;&gt;ids_cuencas_tributarias -->
<g id="edge8" class="edge">
<title>matcon-&gt;ids_cuencas_tributarias</title>
<path fill="none" stroke="#000000" d="M280.2585,-360.046C282.7453,-352.2609 285.7077,-342.9875 288.4671,-334.3493"/>
<polygon fill="#000000" stroke="#000000" points="291.8636,-335.2187 291.5726,-324.6279 285.1955,-333.0886 291.8636,-335.2187"/>
</g>
<!-- tabla_demandas -->
<g id="node7" class="node">
<title>tabla_demandas</title>
<ellipse fill="none" stroke="#000000" cx="158.4546" cy="-234.2146" rx="73.4959" ry="18"/>
<text text-anchor="middle" x="158.4546" y="-230.0146" font-family="Times,serif" font-size="14.00" fill="#000000">tabla_demandas</text>
</g>
<!-- ids_cuencas_tributarias&#45;&gt;tabla_demandas -->
<g id="edge5" class="edge">
<title>ids_cuencas_tributarias-&gt;tabla_demandas</title>
<path fill="none" stroke="#000000" d="M264.5135,-289.1516C244.9323,-279.0088 219.9386,-266.0624 199.1328,-255.2853"/>
<polygon fill="#000000" stroke="#000000" points="200.6917,-252.1512 190.2024,-250.6595 197.4721,-258.3668 200.6917,-252.1512"/>
</g>
<!-- tabla_retornos -->
<g id="node8" class="node">
<title>tabla_retornos</title>
<ellipse fill="none" stroke="#000000" cx="328.4546" cy="-234.2146" rx="66.0512" ry="18"/>
<text text-anchor="middle" x="328.4546" y="-230.0146" font-family="Times,serif" font-size="14.00" fill="#000000">tabla_retornos</text>
</g>
<!-- ids_cuencas_tributarias&#45;&gt;tabla_retornos -->
<g id="edge6" class="edge">
<title>ids_cuencas_tributarias-&gt;tabla_retornos</title>
<path fill="none" stroke="#000000" d="M305.2772,-288.046C308.7546,-279.9693 312.9218,-270.2907 316.7578,-261.3814"/>
<polygon fill="#000000" stroke="#000000" points="320.0019,-262.697 320.7419,-252.128 313.5725,-259.9287 320.0019,-262.697"/>
</g>
<!-- tabla_ecosistemica -->
<g id="node9" class="node">
<title>tabla_ecosistemica</title>
<ellipse fill="none" stroke="#000000" cx="517.4546" cy="-234.2146" rx="83.9412" ry="18"/>
<text text-anchor="middle" x="517.4546" y="-230.0146" font-family="Times,serif" font-size="14.00" fill="#000000">tabla_ecosistemica</text>
</g>
<!-- ids_cuencas_tributarias&#45;&gt;tabla_ecosistemica -->
<g id="edge9" class="edge">
<title>ids_cuencas_tributarias-&gt;tabla_ecosistemica</title>
<path fill="none" stroke="#000000" d="M346.0069,-290.3248C380.1277,-279.1579 425.8627,-264.1901 461.5144,-252.5223"/>
<polygon fill="#000000" stroke="#000000" points="462.8693,-255.7616 471.2846,-249.3248 460.6919,-249.1088 462.8693,-255.7616"/>
</g>
<!-- damanda_agregada -->
<g id="node11" class="node">
<title>damanda_agregada</title>
<ellipse fill="none" stroke="#000000" cx="152.4546" cy="-162.2146" rx="85.6396" ry="18"/>
<text text-anchor="middle" x="152.4546" y="-158.0146" font-family="Times,serif" font-size="14.00" fill="#000000">damanda_agregada</text>
</g>
<!-- tabla_demandas&#45;&gt;damanda_agregada -->
<g id="edge11" class="edge">
<title>tabla_demandas-&gt;damanda_agregada</title>
<path fill="none" stroke="#000000" d="M156.9405,-216.046C156.2988,-208.3456 155.5358,-199.1889 154.8226,-190.6312"/>
<polygon fill="#000000" stroke="#000000" points="158.3075,-190.3026 153.989,-180.6279 151.3317,-190.884 158.3075,-190.3026"/>
</g>
<!-- retorno_agregado -->
<g id="node10" class="node">
<title>retorno_agregado</title>
<ellipse fill="none" stroke="#000000" cx="335.4546" cy="-162.2146" rx="79.2787" ry="18"/>
<text text-anchor="middle" x="335.4546" y="-158.0146" font-family="Times,serif" font-size="14.00" fill="#000000">retorno_agregado</text>
</g>
<!-- tabla_retornos&#45;&gt;retorno_agregado -->
<g id="edge10" class="edge">
<title>tabla_retornos-&gt;retorno_agregado</title>
<path fill="none" stroke="#000000" d="M330.221,-216.046C330.9696,-208.3456 331.8599,-199.1889 332.6919,-190.6312"/>
<polygon fill="#000000" stroke="#000000" points="336.1802,-190.9197 333.6644,-180.6279 329.2131,-190.2422 336.1802,-190.9197"/>
</g>
<!-- ecosistemica_agregada -->
<g id="node13" class="node">
<title>ecosistemica_agregada</title>
<ellipse fill="none" stroke="#000000" cx="532.4546" cy="-162.2146" rx="100.0969" ry="18"/>
<text text-anchor="middle" x="532.4546" y="-158.0146" font-family="Times,serif" font-size="14.00" fill="#000000">ecosistemica_agregada</text>
</g>
<!-- tabla_ecosistemica&#45;&gt;ecosistemica_agregada -->
<g id="edge13" class="edge">
<title>tabla_ecosistemica-&gt;ecosistemica_agregada</title>
<path fill="none" stroke="#000000" d="M521.2397,-216.046C522.844,-208.3456 524.7516,-199.1889 526.5345,-190.6312"/>
<polygon fill="#000000" stroke="#000000" points="530.0053,-191.1315 528.6185,-180.6279 523.1524,-189.7038 530.0053,-191.1315"/>
</g>
<!-- resultado_final -->
<g id="node14" class="node">
<title>resultado_final</title>
<ellipse fill="none" stroke="#000000" cx="243.4546" cy="-90.2146" rx="68.9177" ry="18"/>
<text text-anchor="middle" x="243.4546" y="-86.0146" font-family="Times,serif" font-size="14.00" fill="#000000">resultado_final</text>
</g>
<!-- retorno_agregado&#45;&gt;resultado_final -->
<g id="edge14" class="edge">
<title>retorno_agregado-&gt;resultado_final</title>
<path fill="none" stroke="#000000" d="M313.1839,-144.7854C301.3184,-135.4993 286.5521,-123.9431 273.6667,-113.8588"/>
<polygon fill="#000000" stroke="#000000" points="275.5523,-110.8901 265.5201,-107.4833 271.2381,-116.4027 275.5523,-110.8901"/>
</g>
<!-- damanda_agregada&#45;&gt;resultado_final -->
<g id="edge15" class="edge">
<title>damanda_agregada-&gt;resultado_final</title>
<path fill="none" stroke="#000000" d="M174.4831,-144.7854C186.2197,-135.4993 200.8256,-123.9431 213.5709,-113.8588"/>
<polygon fill="#000000" stroke="#000000" points="215.9584,-116.4329 221.6289,-107.4833 211.615,-110.9434 215.9584,-116.4329"/>
</g>
<!-- caudal_agregado&#45;&gt;resultado_final -->
<g id="edge16" class="edge">
<title>caudal_agregado-&gt;resultado_final</title>
<path fill="none" stroke="#000000" d="M66.9977,-288.2976C51.3992,-255.995 25.0606,-187.3508 57.4546,-144.2146 71.8283,-125.0743 127.7435,-110.5215 174.5483,-101.3737"/>
<polygon fill="#000000" stroke="#000000" points="175.2095,-104.8107 184.3795,-99.5039 173.9016,-97.934 175.2095,-104.8107"/>
</g>
<!-- ecosistemica_agregada&#45;&gt;resultado_final -->
<g id="edge17" class="edge">
<title>ecosistemica_agregada-&gt;resultado_final</title>
<path fill="none" stroke="#000000" d="M473.6228,-147.5575C424.0602,-135.2098 353.4532,-117.6191 303.54,-105.184"/>
<polygon fill="#000000" stroke="#000000" points="304.0817,-101.712 293.5322,-102.6907 302.3895,-108.5044 304.0817,-101.712"/>
</g>
<!-- end -->
<g id="node15" class="node">
<title>end</title>
<polygon fill="none" stroke="#000000" points="261.6698,-36.3225 225.2393,-36.3225 225.2393,.1079 261.6698,.1079 261.6698,-36.3225"/>
<polyline fill="none" stroke="#000000" points="237.2393,-36.3225 225.2393,-24.3225 "/>
<polyline fill="none" stroke="#000000" points="225.2393,-11.8921 237.2393,.1079 "/>
<polyline fill="none" stroke="#000000" points="249.6698,.1079 261.6698,-11.8921 "/>
<polyline fill="none" stroke="#000000" points="261.6698,-24.3225 249.6698,-36.3225 "/>
<text text-anchor="middle" x="243.4546" y="-13.9073" font-family="Times,serif" font-size="14.00" fill="#000000">end</text>
</g>
<!-- resultado_final&#45;&gt;end -->
<g id="edge18" class="edge">
<title>resultado_final-&gt;end</title>
<path fill="none" stroke="#000000" d="M243.4546,-72.0189C243.4546,-64.2477 243.4546,-54.9956 243.4546,-46.3686"/>
<polygon fill="#000000" stroke="#000000" points="246.9547,-46.2972 243.4546,-36.2972 239.9547,-46.2972 246.9547,-46.2972"/>
</g>
</g>
</svg>